<?xml version="1.0" encoding="UTF-8"?>
<!--
  EML220_to_DataCite401 — Transformation Flow Diagram
  =====================================================
  Open in any browser or SVG viewer.
  Shows every mapping step performed by xslt/main.xsl v1.1.0.
  Each numbered box corresponds to a section in docs/mapping-notes.md.
-->
<svg viewBox="0 0 960 1540" xmlns="http://www.w3.org/2000/svg" style="background:#0d1117">
<defs>
  <marker id="a"  markerWidth="8" markerHeight="8" refX="7" refY="3" orient="auto"><path d="M1,1 L7,3 L1,5" fill="none" stroke="#58a6ff" stroke-width="1.4" stroke-linecap="round" stroke-linejoin="round"/></marker>
  <marker id="ag" markerWidth="8" markerHeight="8" refX="7" refY="3" orient="auto"><path d="M1,1 L7,3 L1,5" fill="none" stroke="#3fb950" stroke-width="1.4" stroke-linecap="round" stroke-linejoin="round"/></marker>
  <marker id="ao" markerWidth="8" markerHeight="8" refX="7" refY="3" orient="auto"><path d="M1,1 L7,3 L1,5" fill="none" stroke="#e3b341" stroke-width="1.4" stroke-linecap="round" stroke-linejoin="round"/></marker>
  <marker id="ar" markerWidth="8" markerHeight="8" refX="7" refY="3" orient="auto"><path d="M1,1 L7,3 L1,5" fill="none" stroke="#d2a8ff" stroke-width="1.4" stroke-linecap="round" stroke-linejoin="round"/></marker>
  <style>
    text { font-family: 'DM Mono', 'Courier New', monospace; }
    .src  { fill:#0d2211; stroke:#3fb950; stroke-width:1.5; }
    .out  { fill:#0d1a30; stroke:#58a6ff; stroke-width:1.5; }
    .step { fill:#161b22; stroke:#21262d; stroke-width:1; }
    .dec  { fill:#161b22; stroke:#e3b341; stroke-width:1; }
    .fix  { fill:#1a1225; stroke:#d2a8ff; stroke-width:1; }
    .th   { font-size:11px; fill:#e6edf3; font-weight:bold; }
    .ts   { font-size:9px;  fill:#8b949e; }
    .tg   { font-size:9px;  fill:#3fb950; }
    .tb   { font-size:9px;  fill:#58a6ff; }
    .tp   { font-size:9px;  fill:#d2a8ff; }
    .to   { font-size:9px;  fill:#e3b341; }
    .dim  { font-size:8px;  fill:#4a5568; }
    .eml  { fill:#0d2211; stroke:#3fb950; stroke-width:1; rx:4; }
    .dc   { fill:#0d1a30; stroke:#58a6ff; stroke-width:1; }
  </style>
</defs>

<!-- ── TITLE ── -->
<text x="480" y="26" text-anchor="middle" class="th" style="font-size:14px;fill:#e6edf3">EML 2.2.0  →  DataCite 4.0.1  (OpenAIRE)  —  Transformation Flow</text>
<text x="480" y="42" text-anchor="middle" class="ts">xslt/main.xsl  v1.1.0  ·  LifeWatch ERIC  ·  XSLT 1.0</text>

<!-- ═══════════════════════════════════════════════════════════════════
     INPUT
══════════════════════════════════════════════════════════════════════ -->
<rect x="290" y="56" width="380" height="52" rx="10" class="src"/>
<text x="480" y="76" text-anchor="middle" class="ts">INPUT</text>
<text x="480" y="94" text-anchor="middle" class="th">EML 2.2.0 document  (eml:eml)</text>

<line x1="480" y1="108" x2="480" y2="134" stroke="#58a6ff" stroke-width="1.5" marker-end="url(#a)"/>

<!-- ── ENTRY POINT ── -->
<rect x="220" y="134" width="520" height="38" rx="7" class="step"/>
<text x="480" y="150" text-anchor="middle" class="ts">xsl:template match="/*"  →  emit  oaire:resource  root element</text>
<text x="480" y="163" text-anchor="middle" class="dim">all namespaces declared: datacite · dc · oaire · xsi · rdf · vc</text>

<line x1="480" y1="172" x2="480" y2="196" stroke="#58a6ff" stroke-width="1.5" marker-end="url(#a)"/>

<!-- ── FOR-EACH DATASET ── -->
<rect x="260" y="196" width="440" height="34" rx="7" class="step"/>
<text x="480" y="210" text-anchor="middle" class="ts">xsl:for-each  select="./dataset"</text>
<text x="480" y="223" text-anchor="middle" class="dim">iterate over dataset node (EML has exactly one)</text>

<line x1="480" y1="230" x2="480" y2="254" stroke="#58a6ff" stroke-width="1.5" marker-end="url(#a)"/>

<!-- ═══════════════════════════════════════════════════════════════════
     STEP 1 — IDENTIFIER
══════════════════════════════════════════════════════════════════════ -->
<rect x="20" y="254" width="920" height="110" rx="8" class="fix"/>
<text x="36" y="272" class="tp">① datacite:identifier  (FIX-6)</text>

<!-- Decision diamond -->
<polygon points="480,284 620,304 480,324 340,304" fill="#161b22" stroke="#e3b341" stroke-width="1"/>
<text x="480" y="300" text-anchor="middle" class="to">DOI in alternateIdentifier?</text>
<text x="480" y="313" text-anchor="middle" class="dim">translate() case-insensitive match</text>

<!-- YES right -->
<line x1="620" y1="304" x2="690" y2="304" stroke="#3fb950" stroke-width="1.5" marker-end="url(#ag)"/>
<text x="652" y="298" text-anchor="middle" class="tg" style="font-size:8px">YES</text>
<rect x="690" y="285" width="236" height="38" rx="5" class="dc"/>
<text x="808" y="301" text-anchor="middle" class="tb" style="font-size:9px">datacite:identifier identifierType="DOI"</text>
<text x="808" y="314" text-anchor="middle" class="dim">first DOI alternateIdentifier value</text>

<!-- NO left -->
<line x1="340" y1="304" x2="270" y2="304" stroke="#e3b341" stroke-width="1.5" marker-end="url(#ao)"/>
<text x="306" y="298" text-anchor="middle" class="to" style="font-size:8px">NO</text>
<rect x="34" y="285" width="236" height="38" rx="5" class="dc"/>
<text x="152" y="301" text-anchor="middle" class="tb" style="font-size:9px">datacite:identifier identifierType="URL"</text>
<text x="152" y="314" text-anchor="middle" class="dim">$catalogue-url + non-DOI id / packageId</text>

<!-- ── merge ── -->
<line x1="480" y1="324" x2="480" y2="354" stroke="#58a6ff" stroke-width="1.5" marker-end="url(#a)"/>
<text x="490" y="344" class="dim">continue</text>

<!-- ═══════════════════════════════════════════════════════════════════
     STEP 2 — TITLE
══════════════════════════════════════════════════════════════════════ -->
<rect x="20" y="362" width="920" height="64" rx="8" class="fix"/>
<text x="36" y="380" class="tp">② datacite:titles / datacite:title  (FIX-7)</text>

<rect x="80" y="388" width="380" height="30" rx="5" class="dc"/>
<text x="270" y="400" text-anchor="middle" class="tb" style="font-size:9px">dataset/title  →  datacite:title</text>
<text x="270" y="412" text-anchor="middle" class="dim">normalize-space(./title)</text>

<rect x="510" y="388" width="380" height="30" rx="5" class="dc"/>
<text x="700" y="400" text-anchor="middle" class="tb" style="font-size:9px">dataset/language  →  xml:lang attribute</text>
<text x="700" y="412" text-anchor="middle" class="dim">added when language is non-empty  (FIX-7)</text>

<line x1="480" y1="426" x2="480" y2="450" stroke="#58a6ff" stroke-width="1.5" marker-end="url(#a)"/>

<!-- ═══════════════════════════════════════════════════════════════════
     STEP 3 — PUBLISHER
══════════════════════════════════════════════════════════════════════ -->
<rect x="20" y="450" width="920" height="68" rx="8" class="fix"/>
<text x="36" y="468" class="tp">③ datacite:publisher  (FIX-10 — was missing)</text>

<polygon points="480,476 600,494 480,512 360,494" fill="#161b22" stroke="#e3b341" stroke-width="1"/>
<text x="480" y="490" text-anchor="middle" class="to" style="font-size:8.5px">creator[1]/organizationName present?</text>

<line x1="600" y1="494" x2="660" y2="494" stroke="#3fb950" stroke-width="1.5" marker-end="url(#ag)"/>
<text x="627" y="488" class="tg" style="font-size:8px">YES</text>
<rect x="660" y="480" width="268" height="26" rx="4" class="dc"/>
<text x="794" y="497" text-anchor="middle" class="tb" style="font-size:9px">first creator organizationName</text>

<line x1="360" y1="494" x2="296" y2="494" stroke="#e3b341" stroke-width="1.5" marker-end="url(#ao)"/>
<text x="326" y="488" class="to" style="font-size:8px">NO</text>
<rect x="32" y="480" width="264" height="26" rx="4" class="dc"/>
<text x="164" y="497" text-anchor="middle" class="tb" style="font-size:9px">$default-publisher  (default: 'LifeWatch ERIC')</text>

<line x1="480" y1="518" x2="480" y2="542" stroke="#58a6ff" stroke-width="1.5" marker-end="url(#a)"/>

<!-- ═══════════════════════════════════════════════════════════════════
     STEP 4+5 — PUB YEAR + DATES
══════════════════════════════════════════════════════════════════════ -->
<rect x="20" y="542" width="920" height="56" rx="8" class="step"/>
<text x="36" y="560" class="tb">④ datacite:publicationYear  (FIX-11)  +  ⑤ datacite:dates</text>

<rect x="80" y="567" width="380" height="24" rx="4" class="dc"/>
<text x="270" y="583" text-anchor="middle" class="tb" style="font-size:9px">substring(pubDate,1,4)  →  datacite:publicationYear</text>

<rect x="510" y="567" width="380" height="24" rx="4" class="dc"/>
<text x="700" y="583" text-anchor="middle" class="tb" style="font-size:9px">pubDate  →  datacite:date  dateType="Issued"</text>

<line x1="480" y1="598" x2="480" y2="620" stroke="#58a6ff" stroke-width="1.5" marker-end="url(#a)"/>

<!-- ═══════════════════════════════════════════════════════════════════
     STEP 6 — LANGUAGE
══════════════════════════════════════════════════════════════════════ -->
<rect x="20" y="620" width="920" height="38" rx="8" class="step"/>
<text x="36" y="636" class="tb">⑥ dc:language</text>
<text x="300" y="636" class="dim">dataset/language  →  dc:language  (free text)</text>
<line x1="480" y1="658" x2="480" y2="680" stroke="#58a6ff" stroke-width="1.5" marker-end="url(#a)"/>

<!-- ═══════════════════════════════════════════════════════════════════
     STEP 7 — DESCRIPTION
══════════════════════════════════════════════════════════════════════ -->
<rect x="20" y="680" width="920" height="64" rx="8" class="fix"/>
<text x="36" y="698" class="tp">⑦ datacite:descriptions / datacite:description  (FIX-4 + FIX-8)</text>

<polygon points="480,706 590,720 480,734 370,720" fill="#161b22" stroke="#e3b341" stroke-width="1"/>
<text x="480" y="716" text-anchor="middle" class="to" style="font-size:8.5px">abstract/para children?</text>

<line x1="590" y1="720" x2="650" y2="720" stroke="#3fb950" stroke-width="1.5" marker-end="url(#ag)"/>
<text x="617" y="714" class="tg" style="font-size:8px">YES</text>
<rect x="650" y="708" width="280" height="24" rx="4" class="dc"/>
<text x="790" y="724" text-anchor="middle" class="tb" style="font-size:8.5px">join all para text with space  →  description</text>

<line x1="370" y1="720" x2="310" y2="720" stroke="#e3b341" stroke-width="1.5" marker-end="url(#ao)"/>
<text x="338" y="714" class="to" style="font-size:8px">NO</text>
<rect x="30" y="708" width="280" height="24" rx="4" class="dc"/>
<text x="170" y="724" text-anchor="middle" class="tb" style="font-size:8.5px">normalize-space(./abstract)  fallback</text>

<line x1="480" y1="744" x2="480" y2="766" stroke="#58a6ff" stroke-width="1.5" marker-end="url(#a)"/>

<!-- ═══════════════════════════════════════════════════════════════════
     STEP 8 — SUBJECTS
══════════════════════════════════════════════════════════════════════ -->
<rect x="20" y="766" width="920" height="64" rx="8" class="step"/>
<text x="36" y="784" class="tb">⑧ datacite:subjects  —  for-each keywordSet / keyword</text>

<rect x="80" y="793" width="360" height="30" rx="4" class="dc"/>
<text x="260" y="806" text-anchor="middle" class="tb" style="font-size:8.5px">keywordThesaurus ≠ empty &amp; ≠ "none"</text>
<text x="260" y="818" text-anchor="middle" class="dim">→  datacite:subject  subjectScheme="{thesaurus}"</text>

<rect x="500" y="793" width="380" height="30" rx="4" class="dc"/>
<text x="690" y="806" text-anchor="middle" class="tb" style="font-size:8.5px">keywordThesaurus = empty or "none"</text>
<text x="690" y="818" text-anchor="middle" class="dim">→  datacite:subject  (no subjectScheme)</text>

<line x1="480" y1="830" x2="480" y2="852" stroke="#58a6ff" stroke-width="1.5" marker-end="url(#a)"/>

<!-- ═══════════════════════════════════════════════════════════════════
     STEP 9 — FILE LOCATIONS
══════════════════════════════════════════════════════════════════════ -->
<rect x="20" y="852" width="920" height="80" rx="8" class="fix"/>
<text x="36" y="870" class="tp">⑨ File locations  (FIX-2 — double loop removed)</text>

<!-- Source A -->
<rect x="36" y="876" width="400" height="48" rx="5" fill="#0d1117" stroke="#21262d" stroke-width="1"/>
<text x="236" y="891" text-anchor="middle" class="ts">Source A: dataset/distribution/online/url</text>
<polygon points="236,900 310,910 236,920 162,910" fill="#161b22" stroke="#e3b341" stroke-width="0.8"/>
<text x="236" y="914" text-anchor="middle" class="dim" style="font-size:7.5px">contains 'doi'?</text>
<text x="315" y="913" class="tg" style="font-size:7.5px">YES→ datacite:alternateIdentifier DOI</text>
<text x="315" y="923" class="tb" style="font-size:7.5px">NO → oaire:file</text>

<!-- Source B -->
<rect x="490" y="876" width="430" height="48" rx="5" fill="#0d1117" stroke="#21262d" stroke-width="1"/>
<text x="705" y="891" text-anchor="middle" class="ts">Source B: additionalMetadata/.../gbif/physical/distribution/online/url</text>
<polygon points="705,900 779,910 705,920 631,910" fill="#161b22" stroke="#e3b341" stroke-width="0.8"/>
<text x="705" y="914" text-anchor="middle" class="dim" style="font-size:7.5px">contains 'doi'?</text>
<text x="784" y="913" class="tg" style="font-size:7.5px">YES→ datacite:alternateIdentifier DOI</text>
<text x="784" y="923" class="tb" style="font-size:7.5px">NO → oaire:file</text>

<line x1="480" y1="932" x2="480" y2="954" stroke="#58a6ff" stroke-width="1.5" marker-end="url(#a)"/>

<!-- ═══════════════════════════════════════════════════════════════════
     STEP 10 — CREATORS
══════════════════════════════════════════════════════════════════════ -->
<rect x="20" y="954" width="920" height="90" rx="8" class="fix"/>
<text x="36" y="972" class="tp">⑩ datacite:creators  —  for-each dataset/creator  (FIX-3)</text>

<!-- name decision -->
<polygon points="280,982 420,996 280,1010 140,996" fill="#161b22" stroke="#e3b341" stroke-width="1"/>
<text x="280" y="992" text-anchor="middle" class="to" style="font-size:8px">individualName present?</text>
<text x="280" y="1004" text-anchor="middle" class="dim">(givenName or surName)</text>

<line x1="420" y1="996" x2="480" y2="996" stroke="#3fb950" stroke-width="1.5" marker-end="url(#ag)"/>
<text x="447" y="990" class="tg" style="font-size:8px">YES</text>
<rect x="480" y="983" width="200" height="26" rx="4" class="dc"/>
<text x="580" y="999" text-anchor="middle" class="tb" style="font-size:8.5px">"Surname, GivenName"</text>

<line x1="140" y1="996" x2="80" y2="996" stroke="#e3b341" stroke-width="1.5" marker-end="url(#ao)"/>
<text x="108" y="990" class="to" style="font-size:8px">NO</text>
<rect x="30" y="983" width="50" height="26" rx="4" class="dc"/>
<text x="55" y="999" text-anchor="middle" class="tb" style="font-size:8.5px">org</text>

<!-- ORCID decision -->
<rect x="700" y="983" width="228" height="26" rx="4" class="dc"/>
<text x="814" y="996" text-anchor="middle" class="tb" style="font-size:8.5px">datacite:affiliation  (if org present)</text>

<polygon points="760,1018 860,1030 760,1042 660,1030" fill="#161b22" stroke="#e3b341" stroke-width="1"/>
<text x="760" y="1028" text-anchor="middle" class="to" style="font-size:8px">userId present?</text>
<line x1="860" y1="1030" x2="910" y2="1030" stroke="#3fb950" stroke-width="1.5" marker-end="url(#ag)"/>
<text x="882" y="1024" class="tg" style="font-size:8px">YES</text>
<text x="912" y="1030" class="tb" style="font-size:8px">→ nameIdentifier ORCID</text>
<line x1="660" y1="1030" x2="620" y2="1030" stroke="#e3b341" stroke-width="1.5" marker-end="url(#ao)"/>
<text x="638" y="1024" class="to" style="font-size:8px">NO</text>
<text x="550" y="1030" class="dim" style="font-size:8px">← suppressed  (FIX-3)</text>

<line x1="480" y1="1044" x2="480" y2="1066" stroke="#58a6ff" stroke-width="1.5" marker-end="url(#a)"/>

<!-- ═══════════════════════════════════════════════════════════════════
     STEP 11 — CONTRIBUTORS
══════════════════════════════════════════════════════════════════════ -->
<rect x="20" y="1066" width="920" height="56" rx="8" class="step"/>
<text x="36" y="1084" class="tb">⑪ datacite:contributors  (FIX-3 applied)</text>

<rect x="80" y="1091" width="370" height="24" rx="4" class="dc"/>
<text x="265" y="1107" text-anchor="middle" class="tb" style="font-size:8.5px">contact  →  contributorType="ContactPerson"</text>

<rect x="510" y="1091" width="370" height="24" rx="4" class="dc"/>
<text x="695" y="1107" text-anchor="middle" class="tb" style="font-size:8.5px">metadataProvider  →  contributorType="DataManager"</text>

<line x1="480" y1="1122" x2="480" y2="1144" stroke="#58a6ff" stroke-width="1.5" marker-end="url(#a)"/>

<!-- ═══════════════════════════════════════════════════════════════════
     STEP 12 — GEO
══════════════════════════════════════════════════════════════════════ -->
<rect x="20" y="1144" width="920" height="78" rx="8" class="fix"/>
<text x="36" y="1162" class="tp">⑫ datacite:geoLocations  (FIX-1 — element names corrected)</text>

<rect x="36" y="1170" width="420" height="44" rx="5" fill="#0d1117" stroke="#21262d" stroke-width="1"/>
<text x="246" y="1185" text-anchor="middle" class="ts">coverage/geographicCoverage</text>
<text x="246" y="1198" text-anchor="middle" class="dim">geoLocationPlace  ← geographicDescription</text>
<text x="246" y="1210" text-anchor="middle" class="dim">westBoundLongitude / eastBoundLongitude  (unchanged)</text>

<rect x="504" y="1170" width="420" height="44" rx="5" fill="#1a1225" stroke="#d2a8ff" stroke-width="1"/>
<text x="714" y="1185" text-anchor="middle" class="tp">FIX-1: element names CORRECTED</text>
<text x="714" y="1200" text-anchor="middle" class="dim">southBoundLatitude  ← southBoundingCoordinate</text>
<text x="714" y="1212" text-anchor="middle" class="dim">northBoundLatitude  ← northBoundingCoordinate</text>

<line x1="480" y1="1222" x2="480" y2="1244" stroke="#58a6ff" stroke-width="1.5" marker-end="url(#a)"/>

<!-- ═══════════════════════════════════════════════════════════════════
     STEP 13 — RESOURCE TYPE
══════════════════════════════════════════════════════════════════════ -->
<rect x="20" y="1244" width="920" height="52" rx="8" class="fix"/>
<text x="36" y="1262" class="tp">⑬ Resource types  (FIX-9 capitalised + FIX-12 DataCite element added)</text>

<rect x="80" y="1270" width="360" height="20" rx="4" class="dc"/>
<text x="260" y="1284" text-anchor="middle" class="tb" style="font-size:8.5px">datacite:resourceType  resourceTypeGeneral="Dataset"  (FIX-12)</text>

<rect x="510" y="1270" width="380" height="20" rx="4" class="dc"/>
<text x="700" y="1284" text-anchor="middle" class="tb" style="font-size:8.5px">oaire:resourceType  resourceTypeGeneral="Dataset"  uri=coar/c_ddb1</text>

<line x1="480" y1="1296" x2="480" y2="1318" stroke="#58a6ff" stroke-width="1.5" marker-end="url(#a)"/>

<!-- ═══════════════════════════════════════════════════════════════════
     STEP 14 — ACCESS RIGHTS
══════════════════════════════════════════════════════════════════════ -->
<rect x="20" y="1318" width="920" height="86" rx="8" class="fix"/>
<text x="36" y="1336" class="tp">⑭ datacite:rights  (FIX-5 — now tests intellectualRights only)</text>
<text x="36" y="1350" class="dim">$rights-text = intellectualRights/para  (or intellectualRights text if no para child)</text>

<polygon points="480,1358 640,1374 480,1390 320,1374" fill="#161b22" stroke="#e3b341" stroke-width="1"/>
<text x="480" y="1368" text-anchor="middle" class="to" style="font-size:8px">contains "creative commons" | "cc-by" | "4.0" | "open access"?</text>
<text x="480" y="1380" text-anchor="middle" class="dim">(case-insensitive via translate())</text>

<line x1="640" y1="1374" x2="704" y2="1374" stroke="#3fb950" stroke-width="1.5" marker-end="url(#ag)"/>
<text x="669" y="1368" class="tg" style="font-size:8px">YES</text>
<rect x="704" y="1360" width="220" height="30" rx="4" class="dc"/>
<text x="814" y="1374" text-anchor="middle" class="tb" style="font-size:8px">rights CC-BY-4.0</text>
<text x="814" y="1386" text-anchor="middle" class="dim" style="font-size:7px">creativecommons.org/licenses/by/4.0/</text>

<line x1="320" y1="1374" x2="256" y2="1374" stroke="#e3b341" stroke-width="1.5" marker-end="url(#ao)"/>
<text x="286" y="1368" class="to" style="font-size:8px">NO</text>
<rect x="36" y="1360" width="220" height="30" rx="4" class="dc"/>
<text x="146" y="1374" text-anchor="middle" class="tb" style="font-size:8px">rights metadata only access</text>
<text x="146" y="1386" text-anchor="middle" class="dim" style="font-size:7px">coar/access_right/c_14cb</text>

<line x1="480" y1="1404" x2="480" y2="1426" stroke="#3fb950" stroke-width="1.5" marker-end="url(#ag)"/>

<!-- ═══════════════════════════════════════════════════════════════════
     OUTPUT
══════════════════════════════════════════════════════════════════════ -->
<rect x="240" y="1426" width="480" height="60" rx="10" fill="#0d1a30" stroke="#58a6ff" stroke-width="2"/>
<text x="480" y="1449" text-anchor="middle" class="ts">OUTPUT</text>
<text x="480" y="1468" text-anchor="middle" class="th">oaire:resource  (DataCite 4.0.1 / OpenAIRE 4.0)</text>
<text x="480" y="1484" text-anchor="middle" class="dim">ready for OAI-PMH · OpenAIRE · EOSC</text>

<!-- ── LEGEND ── -->
<rect x="20" y="1500" width="920" height="30" rx="6" fill="#161b22" stroke="#21262d" stroke-width="0.5"/>
<text x="36" y="1518" class="dim">Legend:</text>
<rect x="90" y="1508" width="10" height="10" rx="2" fill="#1a1225" stroke="#d2a8ff" stroke-width="1"/>
<text x="107" y="1518" class="dim">Bug fix applied</text>
<rect x="210" y="1508" width="10" height="10" rx="2" fill="#161b22" stroke="#21262d" stroke-width="1"/>
<text x="227" y="1518" class="dim">Standard step</text>
<polygon points="330,1513 340,1508 350,1513 340,1518" fill="#161b22" stroke="#e3b341" stroke-width="1"/>
<text x="358" y="1518" class="dim">Decision</text>
<line x1="435" y1="1513" x2="460" y2="1513" stroke="#3fb950" stroke-width="1.5" marker-end="url(#ag)"/>
<text x="468" y="1518" class="dim">open / YES path</text>
<line x1="580" y1="1513" x2="605" y2="1513" stroke="#58a6ff" stroke-width="1.5" marker-end="url(#a)"/>
<text x="613" y="1518" class="dim">main flow</text>
<text x="700" y="1518" class="dim">FIX-N = bug number from docs/mapping-notes.md</text>
</svg>
